<?xml version="1.0" ?>

<!-- Uploaded to: SVG Repo, www.svgrepo.com, Generator: SVG Repo Mixer Tools -->
<svg width="800px" height="800px" viewBox="0 0 32 32" id="svg5" version="1.1" xmlns="http://www.w3.org/2000/svg" xmlns:svg="http://www.w3.org/2000/svg">

<defs id="defs2"/>

<g id="layer1" transform="translate(36.000001,-340)">

<path d="m -20.132812,341.02148 a 1.0001,1.0001 0 0 0 -0.482422,0.20313 c 0,0 -0.801591,0.62442 -1.611328,1.48047 C -23.036301,343.56113 -24,344.58169 -24,346.01367 c 0,1.19103 0.530175,2.2651 1.365234,3 h -0.880859 C -24.874669,349.01367 -26,350.139 -26,351.49805 v 0.0312 c 0,1.35904 1.125331,2.48437 2.484375,2.48437 h 0.349609 l -1.691406,11 h -0.658203 C -26.874669,365.01367 -28,366.139 -28,367.49805 v 0.0312 c 0,1.35904 1.125331,2.48437 2.484375,2.48437 h 11.03125 c 1.359044,0 2.484375,-1.12533 2.484375,-2.48437 v -0.0312 c 0,-1.35905 -1.125331,-2.48438 -2.484375,-2.48438 h -0.658203 l -1.691406,-11 h 0.349609 c 1.359044,0 2.484375,-1.12533 2.484375,-2.48437 v -0.0312 c 0,-1.35905 -1.125331,-2.48438 -2.484375,-2.48438 h -0.880859 c 0.835059,-0.7349 1.365234,-1.80897 1.365234,-3 0,-1.43198 -0.9637,-2.45254 -1.773438,-3.30859 -0.809738,-0.85605 -1.611328,-1.48047 -1.611328,-1.48047 a 1.0001,1.0001 0 0 0 -0.748046,-0.20313 z M -20,343.36719 c 0.267528,0.23041 0.389111,0.30464 0.773438,0.71093 0.690259,0.72974 1.226562,1.71068 1.226562,1.93555 0,1.11641 -0.883595,2 -2,2 -1.116405,0 -2,-0.88359 -2,-2 0,-0.22487 0.536302,-1.20581 1.226562,-1.93555 0.384326,-0.40629 0.50591,-0.48052 0.773438,-0.71093 z m -3.515625,7.64648 h 7.03125 c 0.285641,0 0.484375,0.19874 0.484375,0.48438 v 0.0312 c 0,0.28564 -0.198734,0.48437 -0.484375,0.48437 h -7.03125 C -23.801266,352.01372 -24,351.81494 -24,351.5293 v -0.0312 c 0,-0.28564 0.198734,-0.48438 0.484375,-0.48438 z m 2.373047,3 h 2.285156 l 1.691406,11 h -5.667968 z m -4.373047,13 h 11.03125 c 0.285641,0 0.484375,0.19874 0.484375,0.48438 v 0.0312 c 0,0.28564 -0.198734,0.48437 -0.484375,0.48437 h -11.03125 C -25.801266,368.01372 -26,367.81494 -26,367.5293 v -0.0312 c 0,-0.28564 0.198734,-0.48438 0.484375,-0.48438 z" id="path453489" style="color:#000000;fill:#000000;fill-rule:evenodd;stroke-linecap:round;stroke-linejoin:round;stroke-miterlimit:4.1;-inkscape-stroke:none"/>

</g>

</svg>