<?xml version="1.0" encoding="UTF-8" standalone="no"?>
<!-- Uploaded to: SVG Repo, www.svgrepo.com, Generator: SVG Repo Mixer Tools -->

<svg
   fill="#000000"
   width="800px"
   height="800px"
   viewBox="0 0 24 24"
   version="1.1"
   id="svg1"
   sodipodi:docname="chess-castle-svgrepo-com-invert.svg"
   inkscape:version="1.4 (86a8ad7, 2024-10-11)"
   xmlns:inkscape="http://www.inkscape.org/namespaces/inkscape"
   xmlns:sodipodi="http://sodipodi.sourceforge.net/DTD/sodipodi-0.dtd"
   xmlns="http://www.w3.org/2000/svg"
   xmlns:svg="http://www.w3.org/2000/svg">
  <defs
     id="defs1" />
  <sodipodi:namedview
     id="namedview1"
     pagecolor="#ffffff"
     bordercolor="#000000"
     borderopacity="0.25"
     inkscape:showpageshadow="2"
     inkscape:pageopacity="0.0"
     inkscape:pagecheckerboard="0"
     inkscape:deskcolor="#d1d1d1"
     inkscape:zoom="1.00875"
     inkscape:cx="400"
     inkscape:cy="400"
     inkscape:window-width="1920"
     inkscape:window-height="1009"
     inkscape:window-x="-8"
     inkscape:window-y="-8"
     inkscape:window-maximized="1"
     inkscape:current-layer="svg1" />
  <path
     d="M5,17a1,1,0,0,0-.97.758l-1,4A1,1,0,0,0,4,23H20a1,1,0,0,0,.97-1.242l-1-4A1,1,0,0,0,19,17H16.9l-.778-7H18a1,1,0,0,0,1-1V2a1,1,0,0,0-1-1H14a1,1,0,0,0-1,1V4H11V2a1,1,0,0,0-1-1H6A1,1,0,0,0,5,2V9a1,1,0,0,0,1,1H7.883l-.778,7ZM7,8V3H9V5a1,1,0,0,0,1,1h4a1,1,0,0,0,1-1V3h2V8Zm7.883,9H9.117L9.9,10h4.21Zm3.336,2,.5,2H5.281l.5-2Z"
     id="path1"
     style="stroke-width:0.99999;stroke-dasharray:none;fill:#ffffff" />
</svg>
